<svg xmlns="http://www.w3.org/2000/svg" width="600" height="200" viewBox="0 0 600 200"><rect width="100%" height="100%" fill="#1e293b"/><path fill="#94a3b8" d="M132.915 117.06h8.84q2.44 0 4.1-.58 1.65-.59 2.64-1.56 1-.98 1.43-2.28.44-1.29.44-2.76 0-1.53-.48-2.74-.49-1.22-1.53-2.08-1.04-.87-2.68-1.32-1.64-.46-3.95-.46h-8.81zm7.44-33.4h-7.44v13.58h6.96q4.48 0 6.77-1.63 2.29-1.62 2.29-5.16 0-3.68-2.08-5.24-2.08-1.55-6.5-1.55m-16.18-6.77h16.18q4.62 0 7.9.88t5.38 2.5q2.1 1.63 3.07 3.94.98 2.3.98 5.2 0 1.65-.49 3.17-.49 1.51-1.51 2.82-1.03 1.32-2.6 2.39-1.58 1.07-3.76 1.82 9.69 2.18 9.69 10.47 0 2.99-1.14 5.52-1.14 2.54-3.31 4.37-2.18 1.84-5.37 2.88-3.18 1.04-7.28 1.04h-17.74zm59.15 38.39v-5.63q-3.48.17-5.85.61-2.37.43-3.8 1.12-1.43.68-2.05 1.59t-.62 1.98q0 2.11 1.25 3.02 1.25.92 3.27.92 2.47 0 4.27-.9 1.81-.89 3.53-2.71m-16.97-17.52-1.43-2.57q5.76-5.26 13.85-5.26 2.92 0 5.23.96 2.31.95 3.9 2.66t2.42 4.08.83 5.2v21.06h-3.64q-1.14 0-1.75-.34-.62-.34-.98-1.38l-.71-2.41q-1.27 1.14-2.47 2-1.21.86-2.51 1.45-1.3.58-2.78.89-1.47.31-3.26.31-2.11 0-3.9-.57t-3.09-1.71q-1.3-1.13-2.01-2.82-.72-1.69-.72-3.94 0-1.26.42-2.51.43-1.26 1.39-2.39.95-1.14 2.48-2.15 1.53-1 3.76-1.75 2.22-.75 5.18-1.22t6.76-.57v-1.95q0-3.35-1.43-4.96t-4.13-1.61q-1.95 0-3.23.46-1.29.46-2.26 1.02l-1.77 1.03q-.8.45-1.77.45-.85 0-1.43-.44-.59-.44-.95-1.02m58.34-3.09-2.11 2.93q-.36.45-.7.71t-.99.26q-.62 0-1.2-.37-.59-.38-1.4-.85t-1.93-.84q-1.13-.38-2.78-.38-2.12 0-3.71.77-1.59.76-2.65 2.19-1.05 1.43-1.57 3.46-.52 2.04-.52 4.6 0 2.67.57 4.75.56 2.08 1.64 3.49 1.07 1.42 2.6 2.15 1.52.73 3.44.73t3.1-.47q1.19-.48 2-1.04.82-.57 1.42-1.04t1.35-.47q.97 0 1.46.74l2.31 2.93q-1.34 1.56-2.9 2.61-1.56 1.06-3.23 1.69-1.67.64-3.44.9-1.78.26-3.53.26-3.09 0-5.82-1.16-2.73-1.15-4.78-3.36-2.04-2.21-3.23-5.41t-1.19-7.3q0-3.67 1.06-6.81 1.06-3.13 3.1-5.42 2.05-2.3 5.07-3.59 3.03-1.31 6.96-1.31 3.74 0 6.55 1.21 2.81 1.2 5.05 3.44m5.33-19.08h8.03v27.66h1.49q.82 0 1.29-.21t.96-.86l8.28-10.24q.52-.68 1.16-1.04.63-.35 1.64-.35h7.34l-10.36 12.38q-1.11 1.46-2.41 2.24.68.49 1.22 1.14t1.02 1.39l11.12 16.19h-7.25q-.94 0-1.62-.31-.69-.31-1.14-1.12l-8.52-12.64q-.45-.75-.94-.98t-1.46-.23h-1.82v15.28h-8.03zm59.15 24.74h15.6v19.01q-3.57 2.63-7.62 3.85t-8.66 1.22q-5.75 0-10.42-1.79-4.66-1.79-7.96-4.97-3.3-3.19-5.09-7.61-1.78-4.42-1.78-9.65 0-5.3 1.72-9.72 1.72-4.41 4.89-7.6t7.69-4.94q4.51-1.76 10.14-1.76 2.86 0 5.34.46 2.49.45 4.62 1.25t3.88 1.93q1.76 1.14 3.22 2.51l-2.5 3.96q-.59.94-1.53 1.16-.94.21-2.05-.48-1.07-.61-2.14-1.23-1.08-.62-2.39-1.07-1.32-.46-2.96-.75t-3.79-.29q-3.47 0-6.28 1.17-2.82 1.17-4.8 3.35-1.98 2.17-3.05 5.23-1.08 3.05-1.08 6.82 0 4.03 1.16 7.2 1.15 3.17 3.25 5.36 2.09 2.2 5.05 3.35t6.6 1.15q2.6 0 4.65-.55 2.04-.55 3.99-1.49v-8.52h-5.91q-.85 0-1.32-.47t-.47-1.15zm29.87-7.77.49 3.77q1.56-2.99 3.7-4.7 2.15-1.7 5.07-1.7 2.31 0 3.71 1.01l-.52 6.01q-.17.58-.47.83-.31.24-.83.24-.49 0-1.45-.16-.96-.17-1.87-.17-1.33 0-2.37.4-1.04.39-1.87 1.12t-1.46 1.77q-.64 1.04-1.19 2.37v20.54h-8.03V90.55h4.72q1.23 0 1.72.43.49.44.65 1.58m31.91-2.54q3.71 0 6.75 1.21 3.04 1.2 5.2 3.41t3.33 5.39q1.17 3.19 1.17 7.12 0 3.97-1.17 7.15-1.17 3.19-3.33 5.43t-5.2 3.44q-3.04 1.21-6.75 1.21-3.73 0-6.79-1.21-3.05-1.2-5.21-3.44-2.17-2.24-3.35-5.43-1.19-3.18-1.19-7.15 0-3.93 1.19-7.12 1.18-3.18 3.35-5.39 2.16-2.21 5.21-3.41 3.06-1.21 6.79-1.21m0 28.18q4.16 0 6.16-2.79 2-2.8 2-8.19 0-5.4-2-8.22-2-2.83-6.16-2.83-4.22 0-6.25 2.84t-2.03 8.21q0 5.36 2.03 8.17t6.25 2.81m43.29-27.65h8.03v33.34h-4.91q-1.59 0-2.01-1.46l-.55-2.67q-2.05 2.08-4.52 3.37-2.47 1.28-5.82 1.28-2.73 0-4.82-.93-2.1-.92-3.53-2.61t-2.16-4.02q-.73-2.32-.73-5.12V90.55h8.02v21.18q0 3.06 1.42 4.73 1.41 1.68 4.24 1.68 2.08 0 3.9-.93t3.44-2.55zm22.92 1.46.55 2.63q1.01-1.01 2.13-1.87t2.37-1.46 2.68-.94q1.43-.35 3.12-.35 2.73 0 4.84.93 2.12.93 3.53 2.6t2.15 4q.73 2.32.73 5.12v21.22h-8.03v-21.22q0-3.06-1.4-4.73-1.4-1.68-4.26-1.68-2.08 0-3.9.95-1.82.94-3.44 2.56v24.12h-8.03V90.55h4.91q1.56 0 2.05 1.46m50.63 22V99.06q-1.36-1.66-2.97-2.34t-3.46-.68q-1.82 0-3.29.68-1.46.68-2.5 2.06t-1.59 3.51-.55 5.03q0 2.92.47 4.95t1.35 3.32q.87 1.28 2.14 1.85t2.83.57q2.5 0 4.26-1.04 1.75-1.04 3.31-2.96m0-38.42h8.03v48.3h-4.91q-1.59 0-2.01-1.46l-.69-3.22q-2.01 2.31-4.63 3.74-2.61 1.43-6.09 1.43-2.73 0-5.01-1.14-2.27-1.14-3.91-3.3t-2.54-5.34q-.89-3.19-.89-7.28 0-3.71 1.01-6.89 1-3.19 2.89-5.53 1.88-2.34 4.52-3.66 2.63-1.31 5.91-1.31 2.8 0 4.78.87 1.98.88 3.54 2.38z"/></svg>